<svg id="Capa_1" enable-background="new 0 0 511.98 511.98" height="512" viewBox="0 0 511.98 511.98" width="512" xmlns="http://www.w3.org/2000/svg"><g><g><path d="m425.825 121.948v-9.281c0-23.792-19.383-43.259-43.073-43.259h-129.042c-23.69 0-43.073 19.467-43.073 43.259v9.281z" fill="#477b9e"/><path d="m310.012 69.408h-56.302c-23.69 0-43.073 19.467-43.073 43.259v9.281h56.302v-9.281c0-23.792 19.383-43.259 43.073-43.259z" fill="#3f6d8e"/><path d="m139.76 181.801v216.661c0 15.249-12.477 27.726-27.726 27.726h364.534c15.25 0 27.726-12.477 27.726-27.726v-216.661z" fill="#3f6d8e"/><path d="m193.348 398.462v-216.661h-53.588v216.661c0 15.249-12.477 27.726-27.726 27.726h53.588c15.249 0 27.726-12.477 27.726-27.726z" fill="#365e7d"/><path d="m476.568 121.722h-364.534c15.25 0 27.726 12.477 27.726 27.726v34.353h364.534v-34.353c.001-15.249-12.476-27.726-27.726-27.726z" fill="#b5dcff"/><path d="m476.568 121.722h-364.534c15.25 0 27.726 12.477 27.726 27.726v34.353h364.534v-34.353c.001-15.249-12.476-27.726-27.726-27.726z" fill="#b5dcff"/><path d="m165.621 121.722h-53.588c15.25 0 27.726 12.477 27.726 27.726v34.353h53.587v-34.353c.002-15.249-12.475-27.726-27.725-27.726z" fill="#8bcaff"/><path d="m98.95 82.368h-48.826c-6.905 0-12.555 5.674-12.555 12.61v14.361c0 6.935 5.65 12.61 12.555 12.61h48.826c6.905 0 12.555-5.674 12.555-12.61v-14.361c0-6.936-5.65-12.61-12.555-12.61z" fill="#477b9e"/><path d="m74.537 109.339v-14.361c0-6.935 5.65-12.61 12.555-12.61h-36.968c-6.905 0-12.555 5.674-12.555 12.61v14.361c0 6.935 5.65 12.61 12.555 12.61h36.968c-6.905-.001-12.555-5.675-12.555-12.61z" fill="#3f6d8e"/><path d="m7.314 181.801v216.661c0 15.249 12.477 27.726 27.726 27.726h78.994c15.25 0 27.726-12.477 27.726-27.726v-216.661z" fill="#477b9e"/><path d="m57.492 398.462v-216.661h-50.178v216.661c0 15.249 12.477 27.726 27.726 27.726h50.178c-15.249 0-27.726-12.477-27.726-27.726z" fill="#3f6d8e"/><path d="m114.034 121.722h-78.994c-15.249 0-27.726 12.477-27.726 27.726v34.353h134.446v-34.353c0-15.249-12.476-27.726-27.726-27.726z" fill="#dbedff"/><path d="m85.218 121.722h-50.178c-15.25 0-27.726 12.477-27.726 27.726v34.353h50.178v-34.353c0-15.249 12.477-27.726 27.726-27.726z" fill="#b5dcff"/><g><g><path d="m318.231 441.882c-79.807 0-144.735-64.928-144.735-144.735s64.928-144.734 144.735-144.734 144.734 64.927 144.734 144.734-64.927 144.735-144.734 144.735z" fill="#365e7d"/></g></g><path d="m222.093 297.147c0-71.528 52.158-131.093 120.437-142.684-7.903-1.342-16.019-2.051-24.298-2.051-79.807 0-144.735 64.927-144.735 144.734s64.928 144.735 144.735 144.735c8.279 0 16.395-.709 24.298-2.051-68.279-11.59-120.437-71.155-120.437-142.683z" fill="#294b64"/><ellipse cx="318.231" cy="297.147" fill="#7fb3fa" rx="113.347" ry="113.346" transform="matrix(.707 -.707 .707 .707 -116.907 312.056)"/><path d="m253.481 297.147c0-54.16 38.187-99.562 89.048-110.715-7.831-1.717-15.959-2.631-24.298-2.631-62.5 0-113.347 50.847-113.347 113.346 0 62.5 50.847 113.347 113.347 113.347 8.339 0 16.467-.913 24.298-2.631-50.861-11.153-89.048-56.555-89.048-110.716z" fill="#64a6f4"/><ellipse cx="318.231" cy="297.147" fill="#64a6f4" rx="69.477" ry="69.477" transform="matrix(.707 -.707 .707 .707 -116.907 312.056)"/><path d="m297.351 297.147c0-29.764 18.818-55.208 45.178-65.082-7.568-2.835-15.753-4.394-24.298-4.394-38.31 0-69.477 31.167-69.477 69.476 0 38.31 31.167 69.477 69.477 69.477 8.545 0 16.73-1.56 24.298-4.394-26.36-9.874-45.178-35.318-45.178-65.083z" fill="#3d8bd8"/><ellipse cx="318.231" cy="297.147" fill="#9cc5fa" rx="21.173" ry="21.173" transform="matrix(.707 -.707 .707 .707 -116.907 312.056)"/><path d="m318.231 297.147c0-7.817 4.269-14.641 10.587-18.309-3.119-1.811-6.728-2.865-10.587-2.865-11.675 0-21.174 9.498-21.174 21.173s9.499 21.174 21.174 21.174c3.858 0 7.468-1.054 10.587-2.865-6.318-3.667-10.587-10.491-10.587-18.308z" fill="#7fb3fa"/></g><g><path d="m318.417 220.516c-42.445 0-76.977 34.532-76.977 76.977s34.531 76.977 76.977 76.977 76.977-34.532 76.977-76.977-34.532-76.977-76.977-76.977zm0 138.953c-34.174 0-61.977-27.803-61.977-61.977s27.803-61.977 61.977-61.977 61.977 27.803 61.977 61.977-27.803 61.977-61.977 61.977z"/><path d="m318.417 268.819c-15.811 0-28.673 12.863-28.673 28.673s12.862 28.673 28.673 28.673 28.674-12.863 28.674-28.673-12.863-28.673-28.674-28.673zm0 42.347c-7.539 0-13.673-6.134-13.673-13.673s6.134-13.673 13.673-13.673c7.54 0 13.674 6.134 13.674 13.673s-6.134 13.673-13.674 13.673z"/><path d="m511.98 398.807v-214.661-34.353c0-19.424-15.802-35.227-35.226-35.227h-43.244c0-31.868-24.334-52.313-50.572-52.313h-47.021c-4.143 0-7.5 3.358-7.5 7.5s3.357 7.5 7.5 7.5h47.021c18.221 0 35.572 13.974 35.572 37.313h-200.187c0-23.336 17.371-37.313 35.573-37.313h47.021c4.143 0 7.5-3.358 7.5-7.5s-3.357-7.5-7.5-7.5h-47.021c-26.115 0-50.573 20.302-50.573 52.313h-84.802c.423-1.618.671-3.306.671-5.055v-14.299c0-11.059-8.996-20.055-20.055-20.055h-48.826c-11.059 0-20.056 8.997-20.056 20.055v14.299c0 1.844.271 3.622.739 5.318-17.434 2.1-30.994 16.974-30.994 34.964v249.013c0 19.424 15.803 35.227 35.227 35.227h215.925c20.296 10.039 43.131 15.694 67.265 15.694s46.969-5.655 67.266-15.694h91.072c19.424 0 35.225-15.803 35.225-35.226zm-35.225-269.24c11.152 0 20.226 9.074 20.226 20.227v26.853h-86.083c-27.105-20.808-59.167-31.388-92.48-31.388-33.439 0-65.491 10.661-92.479 31.388h-76.491v-26.853c0-6.945-2.116-14.151-6.4-20.227zm-431.5-34.355c0-2.74 2.315-5.055 5.056-5.055h48.826c2.74 0 5.055 2.315 5.055 5.055v14.299c0 2.74-2.314 5.055-5.055 5.055h-48.826c-2.74 0-5.056-2.315-5.056-5.055zm-30.255 54.581c0-11.153 9.073-20.227 20.227-20.227h78.993c11.153 0 20.227 9.074 20.227 20.227v26.853h-119.447zm0 249.014v-207.161h119.446v207.161c0 11.153-9.073 20.227-20.227 20.227h-78.992c-11.154-.001-20.227-9.075-20.227-20.227zm128.046 20.226c4.236-6.007 6.4-13.146 6.4-20.227v-207.16h59.667c-26.557 27.416-42.931 64.753-42.931 105.846 0 48.178 22.743 92.919 60.654 121.541zm38.137-121.541c0-75.745 61.658-137.234 137.234-137.234 74.991 0 137.235 60.836 137.235 137.234 0 75.862-61.744 137.235-137.235 137.235-75.732 0-137.234-61.662-137.234-137.235zm289.469 0c0-40.648-16.05-78.095-42.931-105.846h69.259v207.161c0 11.153-9.073 20.227-20.226 20.227h-66.758c38.233-28.863 60.656-73.787 60.656-121.542z"/><path d="m437.823 316.146c.637-4.093-2.165-7.927-6.258-8.564-4.095-.642-7.928 2.165-8.564 6.257-7.985 51.301-52.508 89.5-104.583 89.5-58.364 0-105.847-47.482-105.847-105.847 0-58.364 47.482-105.846 105.847-105.846 52.084 0 96.6 38.209 104.583 89.5.638 4.092 4.466 6.897 8.564 6.257 4.093-.637 6.895-4.471 6.258-8.564-9.128-58.636-59.968-102.193-119.405-102.193-66.635 0-120.847 54.211-120.847 120.846s54.212 120.847 120.847 120.847c59.359 0 110.266-43.483 119.405-102.193z"/></g></g></svg>